<svg width="350" height="539" viewBox="0 0 350 539" fill="none" xmlns="http://www.w3.org/2000/svg">
<path d="M178.833 57.1563C178.833 59.2727 177.117 60.9883 175 60.9883C172.883 60.9883 171.168 59.2727 171.168 57.1563C171.168 55.04 172.883 53.3243 175 53.3243C177.117 53.3243 178.833 55.04 178.833 57.1563Z" fill="white"/>
<path d="M171.168 481.844C171.168 479.727 172.883 478.012 175 478.012C177.117 478.012 178.833 479.727 178.833 481.844C178.833 483.96 177.117 485.676 175 485.676C172.883 485.676 171.168 483.96 171.168 481.844Z" fill="white"/>
<path fill-rule="evenodd" clip-rule="evenodd" d="M0 0H350V539H0V0ZM2.52093 12.6699V268.24H126.999C127.668 242.307 148.902 221.489 175 221.489C201.097 221.489 222.332 242.307 223.001 268.24H347.479V12.6699C344.898 12.3849 342.475 11.2307 340.622 9.37715C338.768 7.52359 337.613 5.1014 337.328 2.5206H279.278V86.8245H212.752C208.326 92.4551 202.694 97.0266 196.268 100.201C189.654 103.468 182.377 105.167 175 105.167C167.624 105.167 160.346 103.468 153.733 100.201C147.306 97.0266 141.675 92.4551 137.248 86.8245H70.722V2.5206H12.6715C12.3865 5.10141 11.2322 7.52359 9.37836 9.37715C7.52456 11.2307 5.10206 12.3849 2.52093 12.6699ZM2.52093 10.1296C4.43126 9.8582 6.21552 8.97491 7.59579 7.59481C8.97607 6.21472 9.85948 4.43069 10.1309 2.5206H2.52093V10.1296ZM339.869 2.5206C340.141 4.43069 341.024 6.21472 342.404 7.59481C343.784 8.97491 345.569 9.85821 347.479 10.1296V2.5206H339.869ZM154.849 97.941C149.364 95.2317 144.49 91.4482 140.512 86.8245H209.489C205.51 91.4482 200.636 95.2317 195.151 97.941C188.885 101.036 181.989 102.646 175 102.646C168.011 102.646 161.116 101.036 154.849 97.941ZM73.2429 2.5206V84.3039H276.757V2.5206H223.068V30.6219H126.932V2.5206H73.2429ZM129.453 2.5206H220.547V28.1013H129.453V2.5206ZM220.479 268.24C219.811 243.699 199.705 224.01 175 224.01C150.295 224.01 130.189 243.699 129.521 268.24H171.38C171.901 266.742 173.325 265.668 175 265.668C176.675 265.668 178.099 266.742 178.62 268.24H220.479ZM129.521 270.76H171.38C171.901 272.258 173.325 273.332 175 273.332C176.675 273.332 178.099 272.258 178.62 270.76H220.479C219.811 295.301 199.705 314.99 175 314.99C150.295 314.99 130.189 295.301 129.521 270.76ZM126.999 270.76C127.668 296.693 148.902 317.511 175 317.511C201.097 317.511 222.332 296.693 223.001 270.76H347.479V526.33C344.898 526.615 342.475 527.769 340.622 529.623C338.768 531.476 337.613 533.899 337.328 536.479H279.278V452.176H212.752C208.326 446.545 202.694 441.973 196.267 438.799C189.654 435.532 182.377 433.833 175 433.833C167.624 433.833 160.346 435.532 153.733 438.799C147.306 441.973 141.674 446.545 137.248 452.176H70.722V536.479H12.6715C12.3865 533.899 11.2322 531.476 9.37836 529.623C7.52456 527.769 5.10206 526.615 2.52093 526.33V270.76H126.999ZM2.52093 528.87V536.479H10.1309C9.85948 534.569 8.97607 532.785 7.59579 531.405C6.21552 530.025 4.43126 529.142 2.52093 528.87ZM339.869 536.479H347.479V528.87C345.569 529.142 343.784 530.025 342.404 531.405C341.024 532.785 340.141 534.569 339.869 536.479ZM195.151 441.059C200.636 443.768 205.51 447.552 209.489 452.176H140.512C144.49 447.552 149.364 443.768 154.849 441.059C161.115 437.964 168.011 436.354 175 436.354C181.989 436.354 188.885 437.964 195.151 441.059ZM73.2429 536.479H126.932V508.378H223.068V536.479H276.757V454.696H73.2429V536.479ZM220.547 536.479H129.453V510.899H220.547V536.479Z" fill="white"/>
</svg>
